<svg version="1.1" id="Layer_1" xmlns="http://www.w3.org/2000/svg" xmlns:xlink="http://www.w3.org/1999/xlink" x="0px" y="0px"
	 width="100%" viewBox="0 0 1000 238" enable-background="new 0 0 1000 238" xml:space="preserve">
<path fill="#FEFEFE" opacity="1.000000" stroke="none" 
	d="
M742.000000,239.000000 
	C494.666656,239.000000 247.833328,239.000000 1.000000,239.000000 
	C1.000000,159.666672 1.000000,80.333336 1.000000,1.000000 
	C334.333344,1.000000 667.666687,1.000000 1001.000000,1.000000 
	C1001.000000,80.333336 1001.000000,159.666672 1001.000000,239.000000 
	C914.833313,239.000000 828.666687,239.000000 742.000000,239.000000 
M128.006302,145.499847 
	C128.006302,109.386726 128.006302,73.273605 128.006302,37.145603 
	C119.832932,37.145603 112.105736,37.145603 103.901192,37.145603 
	C103.901192,61.728130 103.901192,85.980988 103.901192,110.365005 
	C100.135796,110.365005 96.857719,110.365005 93.050293,110.365005 
	C93.050293,93.402084 93.050293,76.661072 93.050293,59.786018 
	C84.623802,59.786018 76.731880,59.786018 68.255692,59.786018 
	C68.255692,76.865715 68.255692,93.602158 68.255692,110.220787 
	C64.429581,110.220787 61.198914,110.220787 57.555763,110.220787 
	C57.555763,85.580765 57.555763,61.320591 57.555763,36.962669 
	C49.057682,36.962669 40.996780,36.962669 33.151199,36.962669 
	C33.151199,92.708794 33.151199,148.098984 33.151199,203.543396 
	C41.582382,203.543396 49.506489,203.543396 57.956024,203.543396 
	C57.956024,181.046478 57.956024,158.822327 57.956024,136.460358 
	C61.731750,136.460358 64.972969,136.460358 68.765778,136.460358 
	C68.765778,152.287613 68.765778,167.857620 68.765778,183.688599 
	C77.058014,183.688599 84.794746,183.688599 93.219711,183.688599 
	C93.219711,167.772995 93.219711,152.080292 93.219711,136.215927 
	C97.169495,136.215927 100.430794,136.215927 104.234673,136.215927 
	C104.234673,158.836761 104.234673,181.209351 104.234673,203.600098 
	C112.383659,203.600098 119.984818,203.600098 128.008224,203.600098 
	C128.008224,184.402924 128.008224,165.451416 128.006302,145.499847 
M440.619171,131.372025 
	C442.043884,127.009064 442.959259,122.384628 445.029114,118.352867 
	C447.340179,113.851158 451.749359,112.137978 456.866699,112.736214 
	C461.734863,113.305321 464.832336,116.242310 466.075470,120.710350 
	C467.174927,124.661797 467.966919,128.820129 468.061890,132.906494 
	C468.324982,144.226578 468.153503,155.556778 468.153717,166.882980 
	C468.153809,172.820145 468.153717,178.757309 468.153717,184.844421 
	C475.148682,184.844421 481.591187,184.844421 488.521179,184.844421 
	C488.521179,183.057266 488.521332,181.429596 488.521210,179.801926 
	C488.520264,165.977295 488.079498,152.132599 488.709076,138.336746 
	C489.011108,131.718307 490.675385,124.949570 492.965271,118.704491 
	C494.664093,114.071358 499.494904,112.218712 504.562347,112.652092 
	C509.609650,113.083748 512.858154,116.217285 514.152039,120.868164 
	C515.251099,124.818733 516.010193,128.994202 516.065613,133.081757 
	C516.280273,148.902222 516.147339,164.727325 516.163879,180.550674 
	C516.165344,181.981537 516.309753,183.412231 516.383728,184.768860 
	C523.260925,184.768860 529.694763,184.768860 536.271729,184.768860 
	C536.370056,183.907867 536.506958,183.265839 536.507446,182.623734 
	C536.520935,163.968811 536.964966,145.298248 536.308289,126.666557 
	C536.038818,119.022079 534.597168,110.940796 531.588440,103.963951 
	C523.711792,85.699356 500.695831,82.938606 487.698944,98.085846 
	C486.303162,99.712616 485.013092,101.430153 483.616638,103.177315 
	C475.991058,87.678497 455.600098,81.626373 439.817047,98.827454 
	C439.608551,95.674644 439.421661,92.848122 439.232483,89.987389 
	C432.685028,89.987389 426.571838,89.987389 420.263947,89.987389 
	C420.263947,121.693146 420.263947,153.223984 420.263947,184.789444 
	C426.962341,184.789444 433.386505,184.789444 440.176697,184.789444 
	C440.176697,182.455307 440.163147,180.333191 440.178864,178.211288 
	C440.292389,162.894775 440.411896,147.578293 440.619171,131.372025 
M173.466476,164.499481 
	C173.466476,171.270020 173.466476,178.040558 173.466476,184.704224 
	C197.006699,184.704224 219.916473,184.704224 242.710663,184.704224 
	C242.710663,176.989090 242.710663,169.582932 242.710663,161.859772 
	C226.481232,161.859772 210.549820,161.859772 194.507935,161.859772 
	C194.507935,152.310547 194.507935,143.092407 194.507935,133.464478 
	C208.441742,133.464478 222.052185,133.464478 235.651840,133.464478 
	C235.651840,125.661346 235.651840,118.278297 235.651840,110.528946 
	C221.701431,110.528946 208.109070,110.528946 194.471954,110.528946 
	C194.471954,101.731720 194.471954,93.314873 194.471954,84.443848 
	C210.188217,84.443848 225.615356,84.443848 241.148224,84.443848 
	C241.148224,76.438950 241.148224,68.898399 241.148224,61.395897 
	C218.502914,61.395897 196.237305,61.395897 173.466522,61.395897 
	C173.466522,95.592415 173.466522,129.545990 173.466476,164.499481 
M394.948883,121.525841 
	C388.754242,102.594917 382.598755,83.650909 376.285187,64.759735 
	C375.818024,63.362003 374.267944,61.375076 373.129242,61.311508 
	C367.005585,60.969650 360.852783,61.149876 354.549774,61.149876 
	C341.241791,102.485130 328.035309,143.505157 314.674652,185.004013 
	C320.986603,185.004013 326.789062,184.852875 332.577850,185.068802 
	C335.403503,185.174194 336.606812,184.317154 337.371918,181.496689 
	C339.437653,173.881805 341.926544,166.381714 344.152802,159.144028 
	C358.379852,159.144028 371.993042,159.144028 385.568298,159.144028 
	C388.244843,167.930328 390.835815,176.435760 393.346558,184.677917 
	C400.876740,184.677917 407.922058,184.677917 415.403748,184.677917 
	C408.545166,163.603180 401.825104,142.953964 394.948883,121.525841 
M917.592346,182.187790 
	C921.560791,178.778427 925.529236,175.369049 929.584839,171.884827 
	C925.507751,165.768219 922.035706,160.559265 918.326904,154.995056 
	C911.462463,163.311340 903.057678,166.697067 893.014099,162.471832 
	C886.044189,159.539642 882.918762,153.381210 881.573853,145.407776 
	C899.122314,145.407776 916.164856,145.407776 933.391907,145.407776 
	C934.536316,133.730606 933.695312,122.854500 929.451294,112.513763 
	C923.749817,98.622124 914.446045,88.825363 898.341553,88.548676 
	C882.066467,88.269058 871.952332,97.628418 866.069702,111.661240 
	C858.874084,128.826019 858.871277,146.456512 866.347351,163.559799 
	C875.400391,184.270416 896.800598,192.074692 917.592346,182.187790 
M731.191101,151.892212 
	C730.703430,149.922195 730.215759,147.952179 729.577209,145.372757 
	C747.275574,145.372757 764.180542,145.372757 781.486511,145.372757 
	C782.593018,128.420349 780.855347,112.709152 769.626892,99.482559 
	C757.829224,85.585480 737.068726,84.640015 723.902283,97.212662 
	C714.754333,105.948051 710.845886,117.030663 709.540894,129.247299 
	C708.019043,143.493515 709.708496,157.185867 717.603455,169.507248 
	C731.930481,191.866852 763.464172,192.643051 776.897522,170.846497 
	C773.487122,165.736923 770.018433,160.539978 766.535278,155.321411 
	C751.425232,168.021973 739.046509,166.993073 731.191101,151.892212 
M680.028687,90.255447 
	C667.499939,86.077744 656.901855,89.074280 647.790222,99.778473 
	C647.598755,96.003372 647.452881,93.127724 647.296448,90.043976 
	C640.831238,90.043976 634.600830,90.043976 628.317383,90.043976 
	C628.317383,121.804001 628.317383,153.331467 628.317383,184.740723 
	C635.072632,184.740723 641.501465,184.740723 648.173828,184.740723 
	C648.173828,169.346237 648.086243,154.214783 648.213440,139.085114 
	C648.270874,132.260132 648.633606,125.398117 652.614624,119.423615 
	C655.939758,114.433411 660.534851,111.985764 666.619629,112.774780 
	C672.585022,113.548317 675.706543,117.566330 676.912964,122.889954 
	C677.931274,127.383202 678.378906,132.086319 678.429810,136.703720 
	C678.605591,152.659912 678.497437,168.619247 678.497437,184.703201 
	C685.453613,184.703201 692.000549,184.703201 698.841064,184.703201 
	C698.841064,178.270172 698.914185,172.134415 698.826721,166.000916 
	C698.603760,150.358902 698.896362,134.678650 697.853516,119.089218 
	C697.050720,107.087273 692.612061,96.370171 680.028687,90.255447 
M613.170654,133.504364 
	C613.090637,129.675781 613.270813,125.820587 612.882385,122.023544 
	C611.640564,109.883423 608.285095,98.745186 596.718445,92.226723 
	C584.465759,85.321609 562.328918,88.249969 552.258850,98.120476 
	C551.345215,99.015991 550.700012,101.077484 551.067627,102.236931 
	C552.866516,107.910881 555.051147,113.462555 557.160767,119.225037 
	C565.787598,112.283379 574.812988,107.608322 585.677490,112.694542 
	C590.951965,115.163803 593.467590,122.193771 592.384460,129.158035 
	C586.947266,129.158035 581.467896,129.078522 575.991455,129.172546 
	C557.760193,129.485565 548.392883,138.622345 547.598145,156.778519 
	C546.747131,176.220764 560.462891,189.045547 578.842346,186.051590 
	C585.287109,185.001724 589.831055,181.203354 593.935120,175.176422 
	C594.105713,179.038620 594.231750,181.891876 594.356506,184.717407 
	C600.821533,184.717407 606.901428,184.717407 613.170654,184.717407 
	C613.170654,167.787903 613.170654,151.145264 613.170654,133.504364 
M814.126709,116.622360 
	C817.579956,113.174500 821.588806,111.102127 826.624268,111.614204 
	C834.232971,112.387978 837.702637,118.078194 840.963501,124.318924 
	C845.380981,120.999962 849.397461,117.807716 853.604492,114.890305 
	C855.937378,113.272537 856.249390,111.804741 855.197937,109.100327 
	C846.761414,87.400124 819.897278,81.310165 802.537476,97.283913 
	C782.486511,115.733795 781.683777,157.085739 801.001404,176.414062 
	C818.384155,193.806442 846.308411,188.344650 855.061279,165.773834 
	C855.562378,164.481689 855.750427,162.077057 855.016174,161.459061 
	C850.524231,157.678482 845.723877,154.264404 840.930725,150.656311 
	C840.106018,152.145172 839.594910,152.995667 839.151428,153.880112 
	C836.263062,159.641052 831.845947,163.760803 825.249207,163.671707 
	C818.342834,163.578384 813.241333,159.585663 810.717773,153.223511 
	C805.799561,140.824203 805.575073,128.619629 814.126709,116.622360 
M275.168488,62.519554 
	C275.168488,59.738815 275.168488,56.958073 275.168488,54.016724 
	C268.284882,54.016724 261.875092,54.016724 255.233032,54.016724 
	C255.233032,97.668564 255.233032,141.163132 255.233032,184.661987 
	C262.003204,184.661987 268.546112,184.661987 275.168488,184.661987 
	C275.168488,144.056122 275.168488,103.786758 275.168488,62.519554 
M964.857117,132.626984 
	C966.675293,118.887650 972.809082,113.558609 986.669128,113.769531 
	C986.669128,105.389114 986.669128,97.014175 986.669128,88.564842 
	C976.951782,88.389832 969.718445,92.596939 963.400024,101.004425 
	C963.400024,96.403084 963.400024,93.289001 963.400024,90.090767 
	C956.767029,90.090767 950.529846,90.090767 944.360291,90.090767 
	C944.360291,121.879860 944.360291,153.407654 944.360291,184.698639 
	C951.159119,184.698639 957.593201,184.698639 964.735779,184.698639 
	C964.735779,167.430908 964.735779,150.465714 964.857117,132.626984 
z"/>
<path fill="#040404" opacity="1.000000" stroke="none" 
	d="
M128.007263,145.999878 
	C128.008224,165.451416 128.008224,184.402924 128.008224,203.600098 
	C119.984818,203.600098 112.383659,203.600098 104.234673,203.600098 
	C104.234673,181.209351 104.234673,158.836761 104.234673,136.215927 
	C100.430794,136.215927 97.169495,136.215927 93.219711,136.215927 
	C93.219711,152.080292 93.219711,167.772995 93.219711,183.688599 
	C84.794746,183.688599 77.058014,183.688599 68.765778,183.688599 
	C68.765778,167.857620 68.765778,152.287613 68.765778,136.460358 
	C64.972969,136.460358 61.731750,136.460358 57.956024,136.460358 
	C57.956024,158.822327 57.956024,181.046478 57.956024,203.543396 
	C49.506489,203.543396 41.582382,203.543396 33.151199,203.543396 
	C33.151199,148.098984 33.151199,92.708794 33.151199,36.962669 
	C40.996780,36.962669 49.057682,36.962669 57.555763,36.962669 
	C57.555763,61.320591 57.555763,85.580765 57.555763,110.220787 
	C61.198914,110.220787 64.429581,110.220787 68.255692,110.220787 
	C68.255692,93.602158 68.255692,76.865715 68.255692,59.786018 
	C76.731880,59.786018 84.623802,59.786018 93.050293,59.786018 
	C93.050293,76.661072 93.050293,93.402084 93.050293,110.365005 
	C96.857719,110.365005 100.135796,110.365005 103.901192,110.365005 
	C103.901192,85.980988 103.901192,61.728130 103.901192,37.145603 
	C112.105736,37.145603 119.832932,37.145603 128.006302,37.145603 
	C128.006302,73.273605 128.006302,109.386726 128.007263,145.999878 
z"/>
<path fill="#050505" opacity="1.000000" stroke="none" 
	d="
M440.574341,131.816925 
	C440.411896,147.578293 440.292389,162.894775 440.178864,178.211288 
	C440.163147,180.333191 440.176697,182.455307 440.176697,184.789444 
	C433.386505,184.789444 426.962341,184.789444 420.263947,184.789444 
	C420.263947,153.223984 420.263947,121.693146 420.263947,89.987389 
	C426.571838,89.987389 432.685028,89.987389 439.232483,89.987389 
	C439.421661,92.848122 439.608551,95.674644 439.817047,98.827454 
	C455.600098,81.626373 475.991058,87.678497 483.616638,103.177315 
	C485.013092,101.430153 486.303162,99.712616 487.698944,98.085846 
	C500.695831,82.938606 523.711792,85.699356 531.588440,103.963951 
	C534.597168,110.940796 536.038818,119.022079 536.308289,126.666557 
	C536.964966,145.298248 536.520935,163.968811 536.507446,182.623734 
	C536.506958,183.265839 536.370056,183.907867 536.271729,184.768860 
	C529.694763,184.768860 523.260925,184.768860 516.383728,184.768860 
	C516.309753,183.412231 516.165344,181.981537 516.163879,180.550674 
	C516.147339,164.727325 516.280273,148.902222 516.065613,133.081757 
	C516.010193,128.994202 515.251099,124.818733 514.152039,120.868164 
	C512.858154,116.217285 509.609650,113.083748 504.562347,112.652092 
	C499.494904,112.218712 494.664093,114.071358 492.965271,118.704491 
	C490.675385,124.949570 489.011108,131.718307 488.709076,138.336746 
	C488.079498,152.132599 488.520264,165.977295 488.521210,179.801926 
	C488.521332,181.429596 488.521179,183.057266 488.521179,184.844421 
	C481.591187,184.844421 475.148682,184.844421 468.153717,184.844421 
	C468.153717,178.757309 468.153809,172.820145 468.153717,166.882980 
	C468.153503,155.556778 468.324982,144.226578 468.061890,132.906494 
	C467.966919,128.820129 467.174927,124.661797 466.075470,120.710350 
	C464.832336,116.242310 461.734863,113.305321 456.866699,112.736214 
	C451.749359,112.137978 447.340179,113.851158 445.029114,118.352867 
	C442.959259,122.384628 442.043884,127.009064 440.574341,131.816925 
z"/>
<path fill="#060606" opacity="1.000000" stroke="none" 
	d="
M173.466492,163.999512 
	C173.466522,129.545990 173.466522,95.592415 173.466522,61.395897 
	C196.237305,61.395897 218.502914,61.395897 241.148224,61.395897 
	C241.148224,68.898399 241.148224,76.438950 241.148224,84.443848 
	C225.615356,84.443848 210.188217,84.443848 194.471954,84.443848 
	C194.471954,93.314873 194.471954,101.731720 194.471954,110.528946 
	C208.109070,110.528946 221.701431,110.528946 235.651840,110.528946 
	C235.651840,118.278297 235.651840,125.661346 235.651840,133.464478 
	C222.052185,133.464478 208.441742,133.464478 194.507935,133.464478 
	C194.507935,143.092407 194.507935,152.310547 194.507935,161.859772 
	C210.549820,161.859772 226.481232,161.859772 242.710663,161.859772 
	C242.710663,169.582932 242.710663,176.989090 242.710663,184.704224 
	C219.916473,184.704224 197.006699,184.704224 173.466476,184.704224 
	C173.466476,178.040558 173.466476,171.270020 173.466492,163.999512 
z"/>
<path fill="#030303" opacity="1.000000" stroke="none" 
	d="
M395.026947,121.915298 
	C401.825104,142.953964 408.545166,163.603180 415.403748,184.677917 
	C407.922058,184.677917 400.876740,184.677917 393.346558,184.677917 
	C390.835815,176.435760 388.244843,167.930328 385.568298,159.144028 
	C371.993042,159.144028 358.379852,159.144028 344.152802,159.144028 
	C341.926544,166.381714 339.437653,173.881805 337.371918,181.496689 
	C336.606812,184.317154 335.403503,185.174194 332.577850,185.068802 
	C326.789062,184.852875 320.986603,185.004013 314.674652,185.004013 
	C328.035309,143.505157 341.241791,102.485130 354.549774,61.149876 
	C360.852783,61.149876 367.005585,60.969650 373.129242,61.311508 
	C374.267944,61.375076 375.818024,63.362003 376.285187,64.759735 
	C382.598755,83.650909 388.754242,102.594917 395.026947,121.915298 
M359.592529,136.843155 
	C365.844025,136.843155 372.095520,136.843155 378.896851,136.843155 
	C374.195831,121.285027 369.681305,106.344078 364.808258,90.216576 
	C359.902130,106.529243 355.420410,121.430779 350.785065,136.843155 
	C353.737701,136.843155 356.183472,136.843155 359.592529,136.843155 
z"/>
<path fill="#040404" opacity="1.000000" stroke="none" 
	d="
M917.290894,182.408325 
	C896.800598,192.074692 875.400391,184.270416 866.347351,163.559799 
	C858.871277,146.456512 858.874084,128.826019 866.069702,111.661240 
	C871.952332,97.628418 882.066467,88.269058 898.341553,88.548676 
	C914.446045,88.825363 923.749817,98.622124 929.451294,112.513763 
	C933.695312,122.854500 934.536316,133.730606 933.391907,145.407776 
	C916.164856,145.407776 899.122314,145.407776 881.573853,145.407776 
	C882.918762,153.381210 886.044189,159.539642 893.014099,162.471832 
	C903.057678,166.697067 911.462463,163.311340 918.326904,154.995056 
	C922.035706,160.559265 925.507751,165.768219 929.584839,171.884827 
	C925.529236,175.369049 921.560791,178.778427 917.290894,182.408325 
M908.441101,128.998932 
	C910.377319,128.998932 912.313599,128.998932 914.279053,128.998932 
	C913.418030,117.256424 906.539856,109.330406 897.757507,109.511360 
	C888.911316,109.693642 882.170715,117.671638 881.534363,128.998856 
	C890.184509,128.998856 898.820557,128.998856 908.441101,128.998932 
z"/>
<path fill="#040404" opacity="1.000000" stroke="none" 
	d="
M731.384277,152.237610 
	C739.046509,166.993073 751.425232,168.021973 766.535278,155.321411 
	C770.018433,160.539978 773.487122,165.736923 776.897522,170.846497 
	C763.464172,192.643051 731.930481,191.866852 717.603455,169.507248 
	C709.708496,157.185867 708.019043,143.493515 709.540894,129.247299 
	C710.845886,117.030663 714.754333,105.948051 723.902283,97.212662 
	C737.068726,84.640015 757.829224,85.585480 769.626892,99.482559 
	C780.855347,112.709152 782.593018,128.420349 781.486511,145.372757 
	C764.180542,145.372757 747.275574,145.372757 729.577209,145.372757 
	C730.215759,147.952179 730.703430,149.922195 731.384277,152.237610 
M734.069946,115.638283 
	C732.233215,119.855087 730.396545,124.071899 728.374207,128.714783 
	C740.558228,128.714783 751.412842,128.714783 762.286072,128.714783 
	C761.513367,119.631737 757.403687,112.840240 751.086182,110.538795 
	C744.591614,108.172882 739.074524,109.980797 734.069946,115.638283 
z"/>
<path fill="#040404" opacity="1.000000" stroke="none" 
	d="
M680.366638,90.436249 
	C692.612061,96.370171 697.050720,107.087273 697.853516,119.089218 
	C698.896362,134.678650 698.603760,150.358902 698.826721,166.000916 
	C698.914185,172.134415 698.841064,178.270172 698.841064,184.703201 
	C692.000549,184.703201 685.453613,184.703201 678.497437,184.703201 
	C678.497437,168.619247 678.605591,152.659912 678.429810,136.703720 
	C678.378906,132.086319 677.931274,127.383202 676.912964,122.889954 
	C675.706543,117.566330 672.585022,113.548317 666.619629,112.774780 
	C660.534851,111.985764 655.939758,114.433411 652.614624,119.423615 
	C648.633606,125.398117 648.270874,132.260132 648.213440,139.085114 
	C648.086243,154.214783 648.173828,169.346237 648.173828,184.740723 
	C641.501465,184.740723 635.072632,184.740723 628.317383,184.740723 
	C628.317383,153.331467 628.317383,121.804001 628.317383,90.043976 
	C634.600830,90.043976 640.831238,90.043976 647.296448,90.043976 
	C647.452881,93.127724 647.598755,96.003372 647.790222,99.778473 
	C656.901855,89.074280 667.499939,86.077744 680.366638,90.436249 
z"/>
<path fill="#030303" opacity="1.000000" stroke="none" 
	d="
M613.170654,134.003494 
	C613.170654,151.145264 613.170654,167.787903 613.170654,184.717407 
	C606.901428,184.717407 600.821533,184.717407 594.356506,184.717407 
	C594.231750,181.891876 594.105713,179.038620 593.935120,175.176422 
	C589.831055,181.203354 585.287109,185.001724 578.842346,186.051590 
	C560.462891,189.045547 546.747131,176.220764 547.598145,156.778519 
	C548.392883,138.622345 557.760193,129.485565 575.991455,129.172546 
	C581.467896,129.078522 586.947266,129.158035 592.384460,129.158035 
	C593.467590,122.193771 590.951965,115.163803 585.677490,112.694542 
	C574.812988,107.608322 565.787598,112.283379 557.160767,119.225037 
	C555.051147,113.462555 552.866516,107.910881 551.067627,102.236931 
	C550.700012,101.077484 551.345215,99.015991 552.258850,98.120476 
	C562.328918,88.249969 584.465759,85.321609 596.718445,92.226723 
	C608.285095,98.745186 611.640564,109.883423 612.882385,122.023544 
	C613.270813,125.820587 613.090637,129.675781 613.170654,134.003494 
M573.116272,166.711594 
	C586.443604,170.377701 594.861755,161.339508 592.467224,145.498367 
	C587.918152,145.498367 583.304871,145.502151 578.691650,145.497330 
	C573.872498,145.492279 569.832825,146.819092 568.058472,151.859314 
	C566.034668,157.608109 567.552063,162.453751 573.116272,166.711594 
z"/>
<path fill="#040404" opacity="1.000000" stroke="none" 
	d="
M813.894409,116.907135 
	C805.575073,128.619629 805.799561,140.824203 810.717773,153.223511 
	C813.241333,159.585663 818.342834,163.578384 825.249207,163.671707 
	C831.845947,163.760803 836.263062,159.641052 839.151428,153.880112 
	C839.594910,152.995667 840.106018,152.145172 840.930725,150.656311 
	C845.723877,154.264404 850.524231,157.678482 855.016174,161.459061 
	C855.750427,162.077057 855.562378,164.481689 855.061279,165.773834 
	C846.308411,188.344650 818.384155,193.806442 801.001404,176.414062 
	C781.683777,157.085739 782.486511,115.733795 802.537476,97.283913 
	C819.897278,81.310165 846.761414,87.400124 855.197937,109.100327 
	C856.249390,111.804741 855.937378,113.272537 853.604492,114.890305 
	C849.397461,117.807716 845.380981,120.999962 840.963501,124.318924 
	C837.702637,118.078194 834.232971,112.387978 826.624268,111.614204 
	C821.588806,111.102127 817.579956,113.174500 813.894409,116.907135 
z"/>
<path fill="#000000" opacity="1.000000" stroke="none" 
	d="
M275.168488,63.018478 
	C275.168488,103.786758 275.168488,144.056122 275.168488,184.661987 
	C268.546112,184.661987 262.003204,184.661987 255.233032,184.661987 
	C255.233032,141.163132 255.233032,97.668564 255.233032,54.016724 
	C261.875092,54.016724 268.284882,54.016724 275.168488,54.016724 
	C275.168488,56.958073 275.168488,59.738815 275.168488,63.018478 
z"/>
<path fill="#020202" opacity="1.000000" stroke="none" 
	d="
M964.796448,133.063751 
	C964.735779,150.465714 964.735779,167.430908 964.735779,184.698639 
	C957.593201,184.698639 951.159119,184.698639 944.360291,184.698639 
	C944.360291,153.407654 944.360291,121.879860 944.360291,90.090767 
	C950.529846,90.090767 956.767029,90.090767 963.400024,90.090767 
	C963.400024,93.289001 963.400024,96.403084 963.400024,101.004425 
	C969.718445,92.596939 976.951782,88.389832 986.669128,88.564842 
	C986.669128,97.014175 986.669128,105.389114 986.669128,113.769531 
	C972.809082,113.558609 966.675293,118.887650 964.796448,133.063751 
z"/>
<path fill="#F8F8F8" opacity="1.000000" stroke="none" 
	d="
M359.110901,136.843155 
	C356.183472,136.843155 353.737701,136.843155 350.785065,136.843155 
	C355.420410,121.430779 359.902130,106.529243 364.808258,90.216576 
	C369.681305,106.344078 374.195831,121.285027 378.896851,136.843155 
	C372.095520,136.843155 365.844025,136.843155 359.110901,136.843155 
z"/>
<path fill="#FBFBFB" opacity="1.000000" stroke="none" 
	d="
M907.948853,128.998901 
	C898.820557,128.998856 890.184509,128.998856 881.534363,128.998856 
	C882.170715,117.671638 888.911316,109.693642 897.757507,109.511360 
	C906.539856,109.330406 913.418030,117.256424 914.279053,128.998932 
	C912.313599,128.998932 910.377319,128.998932 907.948853,128.998901 
z"/>
<path fill="#FBFBFB" opacity="1.000000" stroke="none" 
	d="
M734.303467,115.353622 
	C739.074524,109.980797 744.591614,108.172882 751.086182,110.538795 
	C757.403687,112.840240 761.513367,119.631737 762.286072,128.714783 
	C751.412842,128.714783 740.558228,128.714783 728.374207,128.714783 
	C730.396545,124.071899 732.233215,119.855087 734.303467,115.353622 
z"/>
<path fill="#FBFBFB" opacity="1.000000" stroke="none" 
	d="
M572.805908,166.481033 
	C567.552063,162.453751 566.034668,157.608109 568.058472,151.859314 
	C569.832825,146.819092 573.872498,145.492279 578.691650,145.497330 
	C583.304871,145.502151 587.918152,145.498367 592.467224,145.498367 
	C594.861755,161.339508 586.443604,170.377701 572.805908,166.481033 
z"/>
</svg>